<svg version="1.0" xmlns="http://www.w3.org/2000/svg" width="100%" height="100%"
     viewBox="0 0 340.000000 250.000000" preserveAspectRatio="xMidYMid meet" color-interpolation-filters="sRGB"
     style="margin: auto;">
    <rect x="0" y="0" width="100%" height="100%" fill="#fff" fill-opacity="1"/>
    <g fill="#333333" transform="translate(110.27000045776367,67.2437515258789)"
       mask="url(#6a891210-ff4b-41ab-9b89-31a303bdef0a)">
        <g fill="#333333" transform="translate(29.729999542236328,0)">
            <rect fill="#333333" fill-opacity="0" stroke-width="2" x="0" y="0" width="60" height="60"/>
            <svg viewBox="0 0 60 60.56026141875188" x="0" y="0" width="60" height="60">
                <g mask="url(#619e4390-d5e4-4e6b-8677-47250b4dd8ed)">
                    <g>
                        <svg xmlns="http://www.w3.org/2000/svg" version="1.1" x="0" y="0"
                             viewBox="0.2947338819503784 -0.001500248908996582 63.40990447998047 64.00200653076172"
                             enable-background="new 0 0 64 64" xml:space="preserve" width="60"
                             height="60.56026141875188"><path d="M59.583,10.308c-8.457-2.251-17.348-4.487-26.916-6.703L32.643,3.6L32.62,3.59  c-0.146-0.059-0.384-0.098-0.619-0.097c-0.237-0.001-0.475,0.038-0.619,0.097L31.358,3.6l-0.024,0.005  c-9.57,2.216-18.46,4.452-26.918,6.703c-0.12,0.07-0.252,0.3-0.248,0.543c0,0.055,0.006,0.109,0.018,0.162  c1.551,6.784,2.322,13.7,2.322,20.618c0,6.253-0.642,12.506-1.915,18.662c-0.015,0.069-0.023,0.151-0.023,0.24  c-0.004,0.264,0.083,0.566,0.181,0.723c8.324,2.768,17.111,5.514,26.732,8.229l0.068,0.02l0.055,0.046  c0.096,0.081,0.243,0.131,0.396,0.131c0.151,0,0.298-0.05,0.394-0.131l0.054-0.046l0.07-0.02c9.62-2.716,18.406-5.462,26.73-8.229  c0.098-0.156,0.186-0.459,0.181-0.722c0-0.088-0.008-0.171-0.023-0.242h0.001c-1.277-6.169-1.915-12.438-1.915-18.706  c0-6.9,0.774-13.802,2.321-20.572c0.013-0.053,0.019-0.108,0.019-0.163C59.836,10.608,59.704,10.378,59.583,10.308z"/>
                            <path d="M63.183,7.693c-9.535-2.539-19.559-5.06-30.348-7.558c-0.458-0.182-1.213-0.182-1.67,0  C20.376,2.634,10.353,5.155,0.818,7.693c-0.387,0.183-0.606,0.737-0.494,1.23C3.637,23.413,3.789,38.441,0.781,52.98  c-0.101,0.493,0.038,1.159,0.317,1.479c9.408,3.13,19.339,6.235,30.218,9.306c0.374,0.314,0.994,0.314,1.369,0  c10.878-3.07,20.809-6.176,30.217-9.306c0.28-0.319,0.419-0.985,0.317-1.479c-3.009-14.539-2.855-29.568,0.456-44.057  C63.788,8.431,63.568,7.876,63.183,7.693z M60.462,11.161c-1.536,6.722-2.305,13.572-2.305,20.424c0,6.223,0.633,12.446,1.9,18.571  l-0.325,0.067l0.325-0.066c0.025,0.123,0.036,0.248,0.036,0.376c-0.005,0.445-0.12,0.898-0.393,1.223l-0.06,0.068l-0.085,0.028  c-8.344,2.775-17.15,5.53-26.795,8.253c-0.226,0.164-0.496,0.239-0.761,0.24c-0.267-0.001-0.536-0.076-0.761-0.24  c-9.645-2.723-18.452-5.477-26.795-8.253l-0.086-0.028l-0.059-0.067c-0.273-0.324-0.388-0.778-0.393-1.225  c0-0.127,0.011-0.253,0.037-0.376c1.264-6.11,1.9-12.318,1.9-18.526c0-6.868-0.765-13.734-2.305-20.469  c-0.024-0.103-0.035-0.208-0.035-0.311c0.005-0.47,0.216-0.937,0.654-1.156l0.028-0.013l0.029-0.008  c8.466-2.253,17.365-4.492,26.945-6.71C31.415,2.868,31.707,2.83,32,2.829c0.292,0,0.583,0.04,0.837,0.133  c9.58,2.219,18.48,4.458,26.947,6.711l0.028,0.008l0.029,0.013c0.438,0.22,0.649,0.686,0.653,1.156  C60.496,10.953,60.485,11.058,60.462,11.161z"/></svg>
                    </g>
                    <g filter="url(#colors5501659264)">
                        <svg xmlns="http://www.w3.org/2000/svg"
                             viewBox="0.0019998550415039062 0.004001617431640625 53.849998474121094 51.14480972290039"
                             width="32.400000000000006" height="32.70254116612602" x="13.799999999999997"
                             y="13.92886012631293">
                            <path transform="translate(-9.288 45.504000000000005)"
                                  d="M62.57-8.50Q62.57-6.05 62.71-2.74Q62.86 0.58 63.14 2.66L63.14 2.66Q60.91 4.03 57.64 4.72Q54.36 5.40 51.41 5.26L51.41 5.26Q52.85 0.58 52.99-5.62L52.99-5.62Q49.82-5.76 40.54-5.90L40.54-5.90L40.54-4.39Q40.54-0.65 41.04 3.17L41.04 3.17Q39.02 4.46 35.68 5.11Q32.33 5.76 29.45 5.62L29.45 5.62Q30.82 0.94 30.82-3.38L30.82-3.38L30.82-5.90Q22.90-5.76 19.94-5.62L19.94-5.62L19.94 1.51Q18.22 3.02 15.59 3.96Q12.96 4.90 10.22 5.33L10.22 5.33L9.65-30.89Q13.82-31.18 28.80-31.32L28.80-31.32L23.76-34.78L27.86-38.09Q14.83-37.94 10.87-37.37L10.87-37.37Q10.22-38.81 9.83-41.00Q9.43-43.20 9.29-45.14L9.29-45.14Q14.11-45.50 35.50-45.50L35.50-45.50Q57.02-45.50 61.70-45.14L61.70-45.14L61.78-45.14Q61.20-41.76 57.53-38.05Q53.86-34.34 48.53-31.25L48.53-31.25Q58.46-31.10 62.57-30.89L62.57-30.89L62.57-8.50ZM44.86-37.94Q39.38-38.09 36.00-38.09L36.00-38.09L32.62-38.09L37.37-33.26Q41.26-35.14 44.86-37.94L44.86-37.94ZM40.54-24.26L40.54-22.18Q49.54-22.03 52.99-21.89L52.99-21.89L52.99-24.19L40.54-24.26ZM19.94-24.19L19.94-21.82Q25.70-22.10 30.82-22.10L30.82-22.10L30.82-24.26L19.94-24.19ZM40.54-15.12L40.54-12.89Q45.00-12.89 50.90-12.74L50.90-12.74Q51.62-12.67 52.99-12.67L52.99-12.67L52.99-14.90Q48.24-15.12 40.54-15.12L40.54-15.12ZM19.94-12.67L30.82-12.89L30.82-15.12L19.94-14.90L19.94-12.67Z"/>
                        </svg>
                    </g>
                </g>
                <mask id="619e4390-d5e4-4e6b-8677-47250b4dd8ed">
                    <g fill="white">
                        <svg xmlns="http://www.w3.org/2000/svg" version="1.1" x="0" y="0"
                             viewBox="0.2947338819503784 -0.001500248908996582 63.40990447998047 64.00200653076172"
                             enable-background="new 0 0 64 64" xml:space="preserve" width="60"
                             height="60.56026141875188"><path d="M59.583,10.308c-8.457-2.251-17.348-4.487-26.916-6.703L32.643,3.6L32.62,3.59  c-0.146-0.059-0.384-0.098-0.619-0.097c-0.237-0.001-0.475,0.038-0.619,0.097L31.358,3.6l-0.024,0.005  c-9.57,2.216-18.46,4.452-26.918,6.703c-0.12,0.07-0.252,0.3-0.248,0.543c0,0.055,0.006,0.109,0.018,0.162  c1.551,6.784,2.322,13.7,2.322,20.618c0,6.253-0.642,12.506-1.915,18.662c-0.015,0.069-0.023,0.151-0.023,0.24  c-0.004,0.264,0.083,0.566,0.181,0.723c8.324,2.768,17.111,5.514,26.732,8.229l0.068,0.02l0.055,0.046  c0.096,0.081,0.243,0.131,0.396,0.131c0.151,0,0.298-0.05,0.394-0.131l0.054-0.046l0.07-0.02c9.62-2.716,18.406-5.462,26.73-8.229  c0.098-0.156,0.186-0.459,0.181-0.722c0-0.088-0.008-0.171-0.023-0.242h0.001c-1.277-6.169-1.915-12.438-1.915-18.706  c0-6.9,0.774-13.802,2.321-20.572c0.013-0.053,0.019-0.108,0.019-0.163C59.836,10.608,59.704,10.378,59.583,10.308z"/>
                            <path d="M63.183,7.693c-9.535-2.539-19.559-5.06-30.348-7.558c-0.458-0.182-1.213-0.182-1.67,0  C20.376,2.634,10.353,5.155,0.818,7.693c-0.387,0.183-0.606,0.737-0.494,1.23C3.637,23.413,3.789,38.441,0.781,52.98  c-0.101,0.493,0.038,1.159,0.317,1.479c9.408,3.13,19.339,6.235,30.218,9.306c0.374,0.314,0.994,0.314,1.369,0  c10.878-3.07,20.809-6.176,30.217-9.306c0.28-0.319,0.419-0.985,0.317-1.479c-3.009-14.539-2.855-29.568,0.456-44.057  C63.788,8.431,63.568,7.876,63.183,7.693z M60.462,11.161c-1.536,6.722-2.305,13.572-2.305,20.424c0,6.223,0.633,12.446,1.9,18.571  l-0.325,0.067l0.325-0.066c0.025,0.123,0.036,0.248,0.036,0.376c-0.005,0.445-0.12,0.898-0.393,1.223l-0.06,0.068l-0.085,0.028  c-8.344,2.775-17.15,5.53-26.795,8.253c-0.226,0.164-0.496,0.239-0.761,0.24c-0.267-0.001-0.536-0.076-0.761-0.24  c-9.645-2.723-18.452-5.477-26.795-8.253l-0.086-0.028l-0.059-0.067c-0.273-0.324-0.388-0.778-0.393-1.225  c0-0.127,0.011-0.253,0.037-0.376c1.264-6.11,1.9-12.318,1.9-18.526c0-6.868-0.765-13.734-2.305-20.469  c-0.024-0.103-0.035-0.208-0.035-0.311c0.005-0.47,0.216-0.937,0.654-1.156l0.028-0.013l0.029-0.008  c8.466-2.253,17.365-4.492,26.945-6.71C31.415,2.868,31.707,2.83,32,2.829c0.292,0,0.583,0.04,0.837,0.133  c9.58,2.219,18.48,4.458,26.947,6.711l0.028,0.008l0.029,0.013c0.438,0.22,0.649,0.686,0.653,1.156  C60.496,10.953,60.485,11.058,60.462,11.161z"/></svg>
                    </g>
                    <g fill="black">
                        <svg xmlns="http://www.w3.org/2000/svg"
                             viewBox="0.0019998550415039062 0.004001617431640625 53.849998474121094 51.14480972290039"
                             width="32.400000000000006" height="32.70254116612602" x="13.799999999999997"
                             y="13.92886012631293">
                            <path transform="translate(-9.288 45.504000000000005)"
                                  d="M62.57-8.50Q62.57-6.05 62.71-2.74Q62.86 0.58 63.14 2.66L63.14 2.66Q60.91 4.03 57.64 4.72Q54.36 5.40 51.41 5.26L51.41 5.26Q52.85 0.58 52.99-5.62L52.99-5.62Q49.82-5.76 40.54-5.90L40.54-5.90L40.54-4.39Q40.54-0.65 41.04 3.17L41.04 3.17Q39.02 4.46 35.68 5.11Q32.33 5.76 29.45 5.62L29.45 5.62Q30.82 0.94 30.82-3.38L30.82-3.38L30.82-5.90Q22.90-5.76 19.94-5.62L19.94-5.62L19.94 1.51Q18.22 3.02 15.59 3.96Q12.96 4.90 10.22 5.33L10.22 5.33L9.65-30.89Q13.82-31.18 28.80-31.32L28.80-31.32L23.76-34.78L27.86-38.09Q14.83-37.94 10.87-37.37L10.87-37.37Q10.22-38.81 9.83-41.00Q9.43-43.20 9.29-45.14L9.29-45.14Q14.11-45.50 35.50-45.50L35.50-45.50Q57.02-45.50 61.70-45.14L61.70-45.14L61.78-45.14Q61.20-41.76 57.53-38.05Q53.86-34.34 48.53-31.25L48.53-31.25Q58.46-31.10 62.57-30.89L62.57-30.89L62.57-8.50ZM44.86-37.94Q39.38-38.09 36.00-38.09L36.00-38.09L32.62-38.09L37.37-33.26Q41.26-35.14 44.86-37.94L44.86-37.94ZM40.54-24.26L40.54-22.18Q49.54-22.03 52.99-21.89L52.99-21.89L52.99-24.19L40.54-24.26ZM19.94-24.19L19.94-21.82Q25.70-22.10 30.82-22.10L30.82-22.10L30.82-24.26L19.94-24.19ZM40.54-15.12L40.54-12.89Q45.00-12.89 50.90-12.74L50.90-12.74Q51.62-12.67 52.99-12.67L52.99-12.67L52.99-14.90Q48.24-15.12 40.54-15.12L40.54-15.12ZM19.94-12.67L30.82-12.89L30.82-15.12L19.94-14.90L19.94-12.67Z"/>
                        </svg>
                    </g>
                </mask>
            </svg>
            <defs>
                <filter>
                    <feColorMatrix values="0 0 0 0 0.19921875  0 0 0 0 0.19921875  0 0 0 0 0.19921875  0 0 0 1 0"/>
                </filter>
                <filter>
                    <feColorMatrix values="0 0 0 0 0.99609375  0 0 0 0 0.99609375  0 0 0 0 0.99609375  0 0 0 1 0"/>
                </filter>
                <filter>
                    <feColorMatrix values="0 0 0 0 0  0 0 0 0 0  0 0 0 0 0  0 0 0 1 0"/>
                </filter>
            </defs>
        </g>
        <g transform="translate(0,67)">
            <g transform="translate(0,0)">
                <g transform="scale(1)">
                    <g>
                        <path transform="translate(-2.8499999046325684, 28.690000534057617)"
                              d="M4.85-15.94Q4.85-17.64 4.57-20.19 4.29-22.74 3.87-24.35L3.87-24.35Q10.67-24.78 17.98-24.86L17.98-24.86 17.43-27.92 25.37-27.92 24.82-24.86Q31.96-24.78 38.63-24.35L38.63-24.35Q38.17-22.7 37.91-20.44 37.66-18.19 37.66-16.58L37.66-16.58 31.62-16.87Q31.62-18.28 31.75-20.06L31.75-20.06Q27.46-20.27 21.21-20.27L21.21-20.27Q15.05-20.27 10.67-20.06L10.67-20.06Q10.84-18.15 10.84-16.28L10.84-16.28 4.85-15.94ZM39.53-15.05Q39.4-13.64 39.02-12.47 38.63-11.31 37.95-9.99L37.95-9.99Q33.83-10.71 24.44-10.92L24.44-10.92 24.44 0Q22.61 2.47 19.51 3.87L19.51 3.87Q17.89 3.02 16.36 1.64 14.83 0.26 13.69-1.28L13.69-1.28Q16.07-1.62 18.02-2.25L18.02-2.25 18.02-10.97Q9.01-10.88 4.46-10.29L4.46-10.29Q3.78-11.56 3.4-12.64 3.02-13.73 2.85-15.05L2.85-15.05Q7.74-15.43 17.98-15.43L17.98-15.43Q31.32-15.43 39.53-15.05L39.53-15.05ZM76.59-4.89Q80.75-3.1 83.43-2.34L83.43-2.34Q82.71-0.43 81.54 1.21 80.37 2.85 79.01 3.61L79.01 3.61Q76.2 2.42 72.08-0.43L72.08-0.43Q68.89 2 65.07 3.19L65.07 3.19Q63.45 2.34 61.84 0.17L61.84 0.17Q61.03 1.87 59.59 3.44L59.59 3.44Q57.93 2.89 56.19 1.72 54.44 0.55 53.55-0.68L53.55-0.68Q56.19-2.72 57.57-6.18 58.95-9.65 58.95-15.34L58.95-15.34Q58.95-19.89 58.01-24.91L58.01-24.91Q61.33-25.08 67.32-25.16L67.32-25.16 66.94-28.69Q68.55-28.69 71-28.22 73.44-27.75 74.55-27.07L74.55-27.07 74.29-25.12Q78.88-25.12 82.19-24.91L82.19-24.91Q81.77-23.04 81.54-20.59 81.3-18.15 81.3-16.32L81.3-16.32 75.82-16.7Q75.82-18.28 75.95-20.19L75.95-20.19Q75.18-20.23 73.61-20.23L73.61-20.23 73.61-15.85Q77.94-15.77 80.41-15.6L80.41-15.6 80.37-15.51Q80.33-12.67 79.35-9.97 78.37-7.27 76.59-4.89L76.59-4.89ZM57.12-22.53L54.74-18.15 46.2-20.66 49.98-27.46 57.12-22.53ZM64.39-15.77Q66.51-15.85 67.87-15.85L67.87-15.85 67.87-20.23Q65.45-20.23 64.34-20.19L64.34-20.19Q64.39-18.66 64.39-15.77L64.39-15.77ZM55.04-15.64L54.48-11.01 45.65-10.16 46.58-17.6 55.04-15.64ZM66.22-11.14Q67.79-9.52 71.02-7.65L71.02-7.65Q72.67-9.35 73.65-11.35L73.65-11.35Q72.55-11.39 70.25-11.39L70.25-11.39Q66.94-11.39 64.3-11.26L64.3-11.26 64.17-9.65Q65.28-10.58 66.22-11.14L66.22-11.14ZM55.55-9.61L57.42-7.1Q56.06-5.1 54.02-2.91 51.98-0.72 50.02 0.81L50.02 0.81Q48.88 0.09 47.66-1.83 46.45-3.74 45.77-5.53L45.77-5.53Q48.15-6.29 50.81-7.4 53.47-8.5 55.55-9.61L55.55-9.61ZM62.9-2.38Q65.11-3.27 66.85-4.38L66.85-4.38Q65.53-5.44 63.92-7.06L63.92-7.06Q63.54-4.46 62.9-2.38L62.9-2.38ZM93.75-17.34L94.35-24.74Q93.25-25.37 90.95-25.65 88.66-25.93 86.7-25.93L86.7-25.93 87.68-17 87.68-4.59Q87.68-2.85 87.44-0.87 87.21 1.1 86.7 2.72L86.7 2.72Q88.4 2.85 90.5 2.3 92.61 1.74 94.05 0.81L94.05 0.81Q93.75-1.36 93.75-6.21L93.75-6.21 93.75-17.34ZM121.04-20.74Q117.13-20.95 113.39-20.95L113.39-20.95 113.39-7.01Q113.39-2.51 113.73 0L113.73 0Q112.37 0.85 110.16 1.25 107.95 1.66 106.08 1.57L106.08 1.57Q106.59-0.09 106.82-2.1 107.06-4.12 107.06-5.78L107.06-5.78 107.06-21Q102.59-20.91 99.07-20.74L99.07-20.74Q98.6-21.8 98.24-23.31 97.88-24.82 97.75-26.14L97.75-26.14Q102.77-26.39 109.91-26.39L109.91-26.39Q117.09-26.39 122.31-26.14L122.31-26.14Q122.19-24.82 121.85-23.33 121.51-21.85 121.04-20.74L121.04-20.74Z"/>
                    </g>
                </g>
            </g>
            <g transform="translate(5.000003814697266,39.560001373291016)">
                <rect x="0" height="1" y="3.9750003814697266" width="15.869998931884766"/>
                <rect height="1" y="3.9750003814697266" width="15.869998931884766" x="93.59000015258789"/>
                <g transform="translate(18.869998931884766,0)">
                    <g transform="scale(1)">
                        <path transform="translate(-0.9375, 8.8125)"
                              d="M4.41 0L0.94 0L0.94-8.58L4.45-8.58Q7.92-8.39 8.06-4.41L8.06-4.41Q7.88-0.09 4.41 0L4.41 0ZM4.27-7.64L2.11-7.64L2.11-0.98L4.36-0.98Q6.80-1.13 6.89-4.31L6.89-4.31Q6.84-7.55 4.27-7.64L4.27-7.64ZM10.83-1.03L15.98-1.03L15.98 0L9.66 0L9.66-8.58L15.89-8.58L15.89-7.59L10.83-7.59L10.83-4.92L15.52-4.92L15.52-3.89L10.83-3.89L10.83-1.03ZM18.14-8.58L20.58-1.27L23.06-8.58L24.38-8.58L21.23 0L19.97 0L16.83-8.58L18.14-8.58ZM26.77-1.03L31.92-1.03L31.92 0L25.59 0L25.59-8.58L31.83-8.58L31.83-7.59L26.77-7.59L26.77-4.92L31.45-4.92L31.45-3.89L26.77-3.89L26.77-1.03ZM33.42-8.58L34.59-8.58L34.59-1.03L38.95-1.03L38.95 0L33.42 0L33.42-8.58ZM46.88-4.27L46.88-4.27Q46.69-7.64 43.88-7.83L43.88-7.83Q41.02-7.69 40.88-4.27L40.88-4.27Q41.02-0.94 43.88-0.80L43.88-0.80Q46.69-0.98 46.88-4.27ZM48.05-4.27L48.05-4.27Q47.77 0 43.88 0.14L43.88 0.14Q39.94 0 39.66-4.27L39.66-4.27Q39.89-8.72 43.88-8.81L43.88-8.81Q47.77-8.67 48.05-4.27ZM53.06-7.64L50.72-7.64L50.72-4.64L53.02-4.64Q54.80-4.64 54.80-6.19L54.80-6.19Q54.80-7.59 53.06-7.64L53.06-7.64ZM53.44-3.61L50.72-3.61L50.72 0L49.55 0L49.55-8.58L53.44-8.58Q55.88-8.48 55.97-6.19L55.97-6.19Q55.83-3.70 53.44-3.61L53.44-3.61ZM58.69-1.03L63.84-1.03L63.84 0L57.52 0L57.52-8.58L63.75-8.58L63.75-7.59L58.69-7.59L58.69-4.92L63.38-4.92L63.38-3.89L58.69-3.89L58.69-1.03ZM69.47-3.70L66.66-3.70L66.66 0L65.48 0L65.48-8.58L69.47-8.58Q72.33-8.58 72.33-6.28L72.33-6.28Q72.33-4.88 71.11-4.22L71.11-4.22Q72.14-3.94 72.14-2.58L72.14-2.58L72.23-1.03Q72.19-0.38 72.66-0.19L72.66-0.19L72.66 0L71.20 0Q71.06-0.61 71.02-2.16L71.02-2.16Q71.06-3.70 69.47-3.70L69.47-3.70ZM69.56-7.64L66.66-7.64L66.66-4.69L69.38-4.69Q71.11-4.69 71.11-6.19L71.11-6.19Q71.11-7.64 69.56-7.64L69.56-7.64Z"/>
                    </g>
                </g>
            </g>
        </g>
        <rect width="131.45999908447266" height="127.51249694824219" transform="translate(-6, -6)"
              style="pointer-events:none;" fill="url(#475e7aee6b641fc0ab7e12ec347df04d)"/>
    </g>
    <defs>
        <linearGradient x1="0" y1="0" x2="1" y2="1" id="475e7aee6b641fc0ab7e12ec347df04d">
            <stop offset="0%" stop-color="#333333"/>
            <stop offset="100%" stop-color="#474747"/>
        </linearGradient>
        <filter id="42443b3f1de60f6b6fd3b6a9844b4764">
            <feColorMatrix values="0 0 0 0 0.99609375  0 0 0 0 0.99609375  0 0 0 0 0.99609375  0 0 0 1 0"/>
        </filter>
    </defs>
    <mask id="6a891210-ff4b-41ab-9b89-31a303bdef0a">
        <g fill="#333333"
           filter="url(#42443b3f1de60f6b6fd3b6a9844b4764)">
            <g fill="#333333" transform="translate(29.729999542236328,0)">
                <rect fill="#333333" fill-opacity="0" stroke-width="2" x="0" y="0" width="60" height="60"/>
                <svg viewBox="0 0 60 60.56026141875188" x="0" y="0" width="60" height="60">
                    <g mask="url(#619e4390-d5e4-4e6b-8677-47250b4dd8ed)">
                        <g>
                            <svg xmlns="http://www.w3.org/2000/svg" version="1.1" x="0" y="0"
                                 viewBox="0.2947338819503784 -0.001500248908996582 63.40990447998047 64.00200653076172"
                                 enable-background="new 0 0 64 64" xml:space="preserve" width="60"
                                 height="60.56026141875188"><path d="M59.583,10.308c-8.457-2.251-17.348-4.487-26.916-6.703L32.643,3.6L32.62,3.59  c-0.146-0.059-0.384-0.098-0.619-0.097c-0.237-0.001-0.475,0.038-0.619,0.097L31.358,3.6l-0.024,0.005  c-9.57,2.216-18.46,4.452-26.918,6.703c-0.12,0.07-0.252,0.3-0.248,0.543c0,0.055,0.006,0.109,0.018,0.162  c1.551,6.784,2.322,13.7,2.322,20.618c0,6.253-0.642,12.506-1.915,18.662c-0.015,0.069-0.023,0.151-0.023,0.24  c-0.004,0.264,0.083,0.566,0.181,0.723c8.324,2.768,17.111,5.514,26.732,8.229l0.068,0.02l0.055,0.046  c0.096,0.081,0.243,0.131,0.396,0.131c0.151,0,0.298-0.05,0.394-0.131l0.054-0.046l0.07-0.02c9.62-2.716,18.406-5.462,26.73-8.229  c0.098-0.156,0.186-0.459,0.181-0.722c0-0.088-0.008-0.171-0.023-0.242h0.001c-1.277-6.169-1.915-12.438-1.915-18.706  c0-6.9,0.774-13.802,2.321-20.572c0.013-0.053,0.019-0.108,0.019-0.163C59.836,10.608,59.704,10.378,59.583,10.308z"/>
                                <path d="M63.183,7.693c-9.535-2.539-19.559-5.06-30.348-7.558c-0.458-0.182-1.213-0.182-1.67,0  C20.376,2.634,10.353,5.155,0.818,7.693c-0.387,0.183-0.606,0.737-0.494,1.23C3.637,23.413,3.789,38.441,0.781,52.98  c-0.101,0.493,0.038,1.159,0.317,1.479c9.408,3.13,19.339,6.235,30.218,9.306c0.374,0.314,0.994,0.314,1.369,0  c10.878-3.07,20.809-6.176,30.217-9.306c0.28-0.319,0.419-0.985,0.317-1.479c-3.009-14.539-2.855-29.568,0.456-44.057  C63.788,8.431,63.568,7.876,63.183,7.693z M60.462,11.161c-1.536,6.722-2.305,13.572-2.305,20.424c0,6.223,0.633,12.446,1.9,18.571  l-0.325,0.067l0.325-0.066c0.025,0.123,0.036,0.248,0.036,0.376c-0.005,0.445-0.12,0.898-0.393,1.223l-0.06,0.068l-0.085,0.028  c-8.344,2.775-17.15,5.53-26.795,8.253c-0.226,0.164-0.496,0.239-0.761,0.24c-0.267-0.001-0.536-0.076-0.761-0.24  c-9.645-2.723-18.452-5.477-26.795-8.253l-0.086-0.028l-0.059-0.067c-0.273-0.324-0.388-0.778-0.393-1.225  c0-0.127,0.011-0.253,0.037-0.376c1.264-6.11,1.9-12.318,1.9-18.526c0-6.868-0.765-13.734-2.305-20.469  c-0.024-0.103-0.035-0.208-0.035-0.311c0.005-0.47,0.216-0.937,0.654-1.156l0.028-0.013l0.029-0.008  c8.466-2.253,17.365-4.492,26.945-6.71C31.415,2.868,31.707,2.83,32,2.829c0.292,0,0.583,0.04,0.837,0.133  c9.58,2.219,18.48,4.458,26.947,6.711l0.028,0.008l0.029,0.013c0.438,0.22,0.649,0.686,0.653,1.156  C60.496,10.953,60.485,11.058,60.462,11.161z"/></svg>
                        </g>
                        <g filter="url(#colors5501659264)">
                            <svg xmlns="http://www.w3.org/2000/svg"
                                 viewBox="0.0019998550415039062 0.004001617431640625 53.849998474121094 51.14480972290039"
                                 width="32.400000000000006" height="32.70254116612602" x="13.799999999999997"
                                 y="13.92886012631293">
                                <path transform="translate(-9.288 45.504000000000005)"
                                      d="M62.57-8.50Q62.57-6.05 62.71-2.74Q62.86 0.58 63.14 2.66L63.14 2.66Q60.91 4.03 57.64 4.72Q54.36 5.40 51.41 5.26L51.41 5.26Q52.85 0.58 52.99-5.62L52.99-5.62Q49.82-5.76 40.54-5.90L40.54-5.90L40.54-4.39Q40.54-0.65 41.04 3.17L41.04 3.17Q39.02 4.46 35.68 5.11Q32.33 5.76 29.45 5.62L29.45 5.62Q30.82 0.94 30.82-3.38L30.82-3.38L30.82-5.90Q22.90-5.76 19.94-5.62L19.94-5.62L19.94 1.51Q18.22 3.02 15.59 3.96Q12.96 4.90 10.22 5.33L10.22 5.33L9.65-30.89Q13.82-31.18 28.80-31.32L28.80-31.32L23.76-34.78L27.86-38.09Q14.83-37.94 10.87-37.37L10.87-37.37Q10.22-38.81 9.83-41.00Q9.43-43.20 9.29-45.14L9.29-45.14Q14.11-45.50 35.50-45.50L35.50-45.50Q57.02-45.50 61.70-45.14L61.70-45.14L61.78-45.14Q61.20-41.76 57.53-38.05Q53.86-34.34 48.53-31.25L48.53-31.25Q58.46-31.10 62.57-30.89L62.57-30.89L62.57-8.50ZM44.86-37.94Q39.38-38.09 36.00-38.09L36.00-38.09L32.62-38.09L37.37-33.26Q41.26-35.14 44.86-37.94L44.86-37.94ZM40.54-24.26L40.54-22.18Q49.54-22.03 52.99-21.89L52.99-21.89L52.99-24.19L40.54-24.26ZM19.94-24.19L19.94-21.82Q25.70-22.10 30.82-22.10L30.82-22.10L30.82-24.26L19.94-24.19ZM40.54-15.12L40.54-12.89Q45.00-12.89 50.90-12.74L50.90-12.74Q51.62-12.67 52.99-12.67L52.99-12.67L52.99-14.90Q48.24-15.12 40.54-15.12L40.54-15.12ZM19.94-12.67L30.82-12.89L30.82-15.12L19.94-14.90L19.94-12.67Z"/>
                            </svg>
                        </g>
                    </g>
                    <mask>
                        <g fill="white">
                            <svg xmlns="http://www.w3.org/2000/svg" version="1.1" x="0" y="0"
                                 viewBox="0.2947338819503784 -0.001500248908996582 63.40990447998047 64.00200653076172"
                                 enable-background="new 0 0 64 64" xml:space="preserve" width="60"
                                 height="60.56026141875188"><path d="M59.583,10.308c-8.457-2.251-17.348-4.487-26.916-6.703L32.643,3.6L32.62,3.59  c-0.146-0.059-0.384-0.098-0.619-0.097c-0.237-0.001-0.475,0.038-0.619,0.097L31.358,3.6l-0.024,0.005  c-9.57,2.216-18.46,4.452-26.918,6.703c-0.12,0.07-0.252,0.3-0.248,0.543c0,0.055,0.006,0.109,0.018,0.162  c1.551,6.784,2.322,13.7,2.322,20.618c0,6.253-0.642,12.506-1.915,18.662c-0.015,0.069-0.023,0.151-0.023,0.24  c-0.004,0.264,0.083,0.566,0.181,0.723c8.324,2.768,17.111,5.514,26.732,8.229l0.068,0.02l0.055,0.046  c0.096,0.081,0.243,0.131,0.396,0.131c0.151,0,0.298-0.05,0.394-0.131l0.054-0.046l0.07-0.02c9.62-2.716,18.406-5.462,26.73-8.229  c0.098-0.156,0.186-0.459,0.181-0.722c0-0.088-0.008-0.171-0.023-0.242h0.001c-1.277-6.169-1.915-12.438-1.915-18.706  c0-6.9,0.774-13.802,2.321-20.572c0.013-0.053,0.019-0.108,0.019-0.163C59.836,10.608,59.704,10.378,59.583,10.308z"/>
                                <path d="M63.183,7.693c-9.535-2.539-19.559-5.06-30.348-7.558c-0.458-0.182-1.213-0.182-1.67,0  C20.376,2.634,10.353,5.155,0.818,7.693c-0.387,0.183-0.606,0.737-0.494,1.23C3.637,23.413,3.789,38.441,0.781,52.98  c-0.101,0.493,0.038,1.159,0.317,1.479c9.408,3.13,19.339,6.235,30.218,9.306c0.374,0.314,0.994,0.314,1.369,0  c10.878-3.07,20.809-6.176,30.217-9.306c0.28-0.319,0.419-0.985,0.317-1.479c-3.009-14.539-2.855-29.568,0.456-44.057  C63.788,8.431,63.568,7.876,63.183,7.693z M60.462,11.161c-1.536,6.722-2.305,13.572-2.305,20.424c0,6.223,0.633,12.446,1.9,18.571  l-0.325,0.067l0.325-0.066c0.025,0.123,0.036,0.248,0.036,0.376c-0.005,0.445-0.12,0.898-0.393,1.223l-0.06,0.068l-0.085,0.028  c-8.344,2.775-17.15,5.53-26.795,8.253c-0.226,0.164-0.496,0.239-0.761,0.24c-0.267-0.001-0.536-0.076-0.761-0.24  c-9.645-2.723-18.452-5.477-26.795-8.253l-0.086-0.028l-0.059-0.067c-0.273-0.324-0.388-0.778-0.393-1.225  c0-0.127,0.011-0.253,0.037-0.376c1.264-6.11,1.9-12.318,1.9-18.526c0-6.868-0.765-13.734-2.305-20.469  c-0.024-0.103-0.035-0.208-0.035-0.311c0.005-0.47,0.216-0.937,0.654-1.156l0.028-0.013l0.029-0.008  c8.466-2.253,17.365-4.492,26.945-6.71C31.415,2.868,31.707,2.83,32,2.829c0.292,0,0.583,0.04,0.837,0.133  c9.58,2.219,18.48,4.458,26.947,6.711l0.028,0.008l0.029,0.013c0.438,0.22,0.649,0.686,0.653,1.156  C60.496,10.953,60.485,11.058,60.462,11.161z"/></svg>
                        </g>
                        <g fill="black">
                            <svg xmlns="http://www.w3.org/2000/svg"
                                 viewBox="0.0019998550415039062 0.004001617431640625 53.849998474121094 51.14480972290039"
                                 width="32.400000000000006" height="32.70254116612602" x="13.799999999999997"
                                 y="13.92886012631293">
                                <path transform="translate(-9.288 45.504000000000005)"
                                      d="M62.57-8.50Q62.57-6.05 62.71-2.74Q62.86 0.58 63.14 2.66L63.14 2.66Q60.91 4.03 57.64 4.72Q54.36 5.40 51.41 5.26L51.41 5.26Q52.85 0.58 52.99-5.62L52.99-5.62Q49.82-5.76 40.54-5.90L40.54-5.90L40.54-4.39Q40.54-0.65 41.04 3.17L41.04 3.17Q39.02 4.46 35.68 5.11Q32.33 5.76 29.45 5.62L29.45 5.62Q30.82 0.94 30.82-3.38L30.82-3.38L30.82-5.90Q22.90-5.76 19.94-5.62L19.94-5.62L19.94 1.51Q18.22 3.02 15.59 3.96Q12.96 4.90 10.22 5.33L10.22 5.33L9.65-30.89Q13.82-31.18 28.80-31.32L28.80-31.32L23.76-34.78L27.86-38.09Q14.83-37.94 10.87-37.37L10.87-37.37Q10.22-38.81 9.83-41.00Q9.43-43.20 9.29-45.14L9.29-45.14Q14.11-45.50 35.50-45.50L35.50-45.50Q57.02-45.50 61.70-45.14L61.70-45.14L61.78-45.14Q61.20-41.76 57.53-38.05Q53.86-34.34 48.53-31.25L48.53-31.25Q58.46-31.10 62.57-30.89L62.57-30.89L62.57-8.50ZM44.86-37.94Q39.38-38.09 36.00-38.09L36.00-38.09L32.62-38.09L37.37-33.26Q41.26-35.14 44.86-37.94L44.86-37.94ZM40.54-24.26L40.54-22.18Q49.54-22.03 52.99-21.89L52.99-21.89L52.99-24.19L40.54-24.26ZM19.94-24.19L19.94-21.82Q25.70-22.10 30.82-22.10L30.82-22.10L30.82-24.26L19.94-24.19ZM40.54-15.12L40.54-12.89Q45.00-12.89 50.90-12.74L50.90-12.74Q51.62-12.67 52.99-12.67L52.99-12.67L52.99-14.90Q48.24-15.12 40.54-15.12L40.54-15.12ZM19.94-12.67L30.82-12.89L30.82-15.12L19.94-14.90L19.94-12.67Z"/>
                            </svg>
                        </g>
                    </mask>
                </svg>
                <defs>
                    <filter id="colors5501659264">
                        <feColorMatrix values="0 0 0 0 0.19921875  0 0 0 0 0.19921875  0 0 0 0 0.19921875  0 0 0 1 0"/>
                    </filter>
                    <filter>
                        <feColorMatrix values="0 0 0 0 0.99609375  0 0 0 0 0.99609375  0 0 0 0 0.99609375  0 0 0 1 0"/>
                    </filter>
                    <filter>
                        <feColorMatrix values="0 0 0 0 0  0 0 0 0 0  0 0 0 0 0  0 0 0 1 0"/>
                    </filter>
                </defs>
            </g>
            <g transform="translate(0,67)">
                <g transform="translate(0,0)">
                    <g transform="scale(1)">
                        <g>
                            <path transform="translate(-2.8499999046325684, 28.690000534057617)"
                                  d="M4.85-15.94Q4.85-17.64 4.57-20.19 4.29-22.74 3.87-24.35L3.87-24.35Q10.67-24.78 17.98-24.86L17.98-24.86 17.43-27.92 25.37-27.92 24.82-24.86Q31.96-24.78 38.63-24.35L38.63-24.35Q38.17-22.7 37.91-20.44 37.66-18.19 37.66-16.58L37.66-16.58 31.62-16.87Q31.62-18.28 31.75-20.06L31.75-20.06Q27.46-20.27 21.21-20.27L21.21-20.27Q15.05-20.27 10.67-20.06L10.67-20.06Q10.84-18.15 10.84-16.28L10.84-16.28 4.85-15.94ZM39.53-15.05Q39.4-13.64 39.02-12.47 38.63-11.31 37.95-9.99L37.95-9.99Q33.83-10.71 24.44-10.92L24.44-10.92 24.44 0Q22.61 2.47 19.51 3.87L19.51 3.87Q17.89 3.02 16.36 1.64 14.83 0.26 13.69-1.28L13.69-1.28Q16.07-1.62 18.02-2.25L18.02-2.25 18.02-10.97Q9.01-10.88 4.46-10.29L4.46-10.29Q3.78-11.56 3.4-12.64 3.02-13.73 2.85-15.05L2.85-15.05Q7.74-15.43 17.98-15.43L17.98-15.43Q31.32-15.43 39.53-15.05L39.53-15.05ZM76.59-4.89Q80.75-3.1 83.43-2.34L83.43-2.34Q82.71-0.43 81.54 1.21 80.37 2.85 79.01 3.61L79.01 3.61Q76.2 2.42 72.08-0.43L72.08-0.43Q68.89 2 65.07 3.19L65.07 3.19Q63.45 2.34 61.84 0.17L61.84 0.17Q61.03 1.87 59.59 3.44L59.59 3.44Q57.93 2.89 56.19 1.72 54.44 0.55 53.55-0.68L53.55-0.68Q56.19-2.72 57.57-6.18 58.95-9.65 58.95-15.34L58.95-15.34Q58.95-19.89 58.01-24.91L58.01-24.91Q61.33-25.08 67.32-25.16L67.32-25.16 66.94-28.69Q68.55-28.69 71-28.22 73.44-27.75 74.55-27.07L74.55-27.07 74.29-25.12Q78.88-25.12 82.19-24.91L82.19-24.91Q81.77-23.04 81.54-20.59 81.3-18.15 81.3-16.32L81.3-16.32 75.82-16.7Q75.82-18.28 75.95-20.19L75.95-20.19Q75.18-20.23 73.61-20.23L73.61-20.23 73.61-15.85Q77.94-15.77 80.41-15.6L80.41-15.6 80.37-15.51Q80.33-12.67 79.35-9.97 78.37-7.27 76.59-4.89L76.59-4.89ZM57.12-22.53L54.74-18.15 46.2-20.66 49.98-27.46 57.12-22.53ZM64.39-15.77Q66.51-15.85 67.87-15.85L67.87-15.85 67.87-20.23Q65.45-20.23 64.34-20.19L64.34-20.19Q64.39-18.66 64.39-15.77L64.39-15.77ZM55.04-15.64L54.48-11.01 45.65-10.16 46.58-17.6 55.04-15.64ZM66.22-11.14Q67.79-9.52 71.02-7.65L71.02-7.65Q72.67-9.35 73.65-11.35L73.65-11.35Q72.55-11.39 70.25-11.39L70.25-11.39Q66.94-11.39 64.3-11.26L64.3-11.26 64.17-9.65Q65.28-10.58 66.22-11.14L66.22-11.14ZM55.55-9.61L57.42-7.1Q56.06-5.1 54.02-2.91 51.98-0.72 50.02 0.81L50.02 0.81Q48.88 0.09 47.66-1.83 46.45-3.74 45.77-5.53L45.77-5.53Q48.15-6.29 50.81-7.4 53.47-8.5 55.55-9.61L55.55-9.61ZM62.9-2.38Q65.11-3.27 66.85-4.38L66.85-4.38Q65.53-5.44 63.92-7.06L63.92-7.06Q63.54-4.46 62.9-2.38L62.9-2.38ZM93.75-17.34L94.35-24.74Q93.25-25.37 90.95-25.65 88.66-25.93 86.7-25.93L86.7-25.93 87.68-17 87.68-4.59Q87.68-2.85 87.44-0.87 87.21 1.1 86.7 2.72L86.7 2.72Q88.4 2.85 90.5 2.3 92.61 1.74 94.05 0.81L94.05 0.81Q93.75-1.36 93.75-6.21L93.75-6.21 93.75-17.34ZM121.04-20.74Q117.13-20.95 113.39-20.95L113.39-20.95 113.39-7.01Q113.39-2.51 113.73 0L113.73 0Q112.37 0.85 110.16 1.25 107.95 1.66 106.08 1.57L106.08 1.57Q106.59-0.09 106.82-2.1 107.06-4.12 107.06-5.78L107.06-5.78 107.06-21Q102.59-20.91 99.07-20.74L99.07-20.74Q98.6-21.8 98.24-23.31 97.88-24.82 97.75-26.14L97.75-26.14Q102.77-26.39 109.91-26.39L109.91-26.39Q117.09-26.39 122.31-26.14L122.31-26.14Q122.19-24.82 121.85-23.33 121.51-21.85 121.04-20.74L121.04-20.74Z"/>
                        </g>
                    </g>
                </g>
                <g fill="#333333" transform="translate(5.000003814697266,39.560001373291016)">
                    <rect x="0" height="1" y="3.9750003814697266" width="15.869998931884766"/>
                    <rect height="1" y="3.9750003814697266" width="15.869998931884766" x="93.59000015258789"/>
                    <g transform="translate(18.869998931884766,0)">
                        <g transform="scale(1)">
                            <path transform="translate(-0.9375, 8.8125)"
                                  d="M4.41 0L0.94 0L0.94-8.58L4.45-8.58Q7.92-8.39 8.06-4.41L8.06-4.41Q7.88-0.09 4.41 0L4.41 0ZM4.27-7.64L2.11-7.64L2.11-0.98L4.36-0.98Q6.80-1.13 6.89-4.31L6.89-4.31Q6.84-7.55 4.27-7.64L4.27-7.64ZM10.83-1.03L15.98-1.03L15.98 0L9.66 0L9.66-8.58L15.89-8.58L15.89-7.59L10.83-7.59L10.83-4.92L15.52-4.92L15.52-3.89L10.83-3.89L10.83-1.03ZM18.14-8.58L20.58-1.27L23.06-8.58L24.38-8.58L21.23 0L19.97 0L16.83-8.58L18.14-8.58ZM26.77-1.03L31.92-1.03L31.92 0L25.59 0L25.59-8.58L31.83-8.58L31.83-7.59L26.77-7.59L26.77-4.92L31.45-4.92L31.45-3.89L26.77-3.89L26.77-1.03ZM33.42-8.58L34.59-8.58L34.59-1.03L38.95-1.03L38.95 0L33.42 0L33.42-8.58ZM46.88-4.27L46.88-4.27Q46.69-7.64 43.88-7.83L43.88-7.83Q41.02-7.69 40.88-4.27L40.88-4.27Q41.02-0.94 43.88-0.80L43.88-0.80Q46.69-0.98 46.88-4.27ZM48.05-4.27L48.05-4.27Q47.77 0 43.88 0.14L43.88 0.14Q39.94 0 39.66-4.27L39.66-4.27Q39.89-8.72 43.88-8.81L43.88-8.81Q47.77-8.67 48.05-4.27ZM53.06-7.64L50.72-7.64L50.72-4.64L53.02-4.64Q54.80-4.64 54.80-6.19L54.80-6.19Q54.80-7.59 53.06-7.64L53.06-7.64ZM53.44-3.61L50.72-3.61L50.72 0L49.55 0L49.55-8.58L53.44-8.58Q55.88-8.48 55.97-6.19L55.97-6.19Q55.83-3.70 53.44-3.61L53.44-3.61ZM58.69-1.03L63.84-1.03L63.84 0L57.52 0L57.52-8.58L63.75-8.58L63.75-7.59L58.69-7.59L58.69-4.92L63.38-4.92L63.38-3.89L58.69-3.89L58.69-1.03ZM69.47-3.70L66.66-3.70L66.66 0L65.48 0L65.48-8.58L69.47-8.58Q72.33-8.58 72.33-6.28L72.33-6.28Q72.33-4.88 71.11-4.22L71.11-4.22Q72.14-3.94 72.14-2.58L72.14-2.58L72.23-1.03Q72.19-0.38 72.66-0.19L72.66-0.19L72.66 0L71.20 0Q71.06-0.61 71.02-2.16L71.02-2.16Q71.06-3.70 69.47-3.70L69.47-3.70ZM69.56-7.64L66.66-7.64L66.66-4.69L69.38-4.69Q71.11-4.69 71.11-6.19L71.11-6.19Q71.11-7.64 69.56-7.64L69.56-7.64Z"/>
                        </g>
                    </g>
                </g>
            </g>
        </g>
    </mask>
</svg>